<svg width="52" height="53" viewBox="0 0 52 53" fill="none" xmlns="http://www.w3.org/2000/svg">
<g id="Group">
<g id="Vector">
<path fill-rule="evenodd" clip-rule="evenodd" d="M35.0372 27.302L35.1739 27.3929L49.7666 37.9726C49.9376 38.0965 50.0879 38.2468 50.2119 38.4178C50.8278 39.2674 50.6787 40.4385 49.8955 41.1094L49.7666 41.211L35.1739 51.7907C34.8326 52.0382 34.4217 52.1715 34 52.1715C32.9456 52.1715 32.0818 51.3556 32.0055 50.3207L32 50.1715V45.171L3 45.1716C1.40232 45.1716 0.0963391 43.9227 0.00509262 42.3479L0 42.1716V37.1716C0 35.5739 1.24892 34.2679 2.82373 34.1767L3 34.1716L32 34.171V29.0121C32 28.6507 32.0979 28.2972 32.2818 27.9886L32.3808 27.8382C32.9967 26.9886 34.1561 26.7662 35.0372 27.302ZM19.212 0.838171C19.4595 1.17956 19.5928 1.59044 19.5928 2.01211L19.592 7.17096L48.5928 7.1716C50.2497 7.1716 51.5928 8.51475 51.5928 10.1716V15.1716C51.5928 16.8285 50.2497 18.1716 48.5928 18.1716L19.592 18.171L19.5928 23.1715C19.5928 24.276 18.6974 25.1715 17.5928 25.1715C17.1711 25.1715 16.7603 25.0382 16.4189 24.7907L1.82621 14.211C0.931938 13.5627 0.732576 12.3121 1.38092 11.4178C1.50491 11.2468 1.6552 11.0965 1.82621 10.9726L16.4189 0.392886C17.3131 -0.255461 18.5637 -0.0560997 19.212 0.838171Z" fill="#E7E8EA"/>
<path fill-rule="evenodd" clip-rule="evenodd" d="M35.0372 27.302L35.1739 27.3929L49.7666 37.9726C49.9376 38.0965 50.0879 38.2468 50.2119 38.4178C50.8278 39.2674 50.6787 40.4385 49.8955 41.1094L49.7666 41.211L35.1739 51.7907C34.8326 52.0382 34.4217 52.1715 34 52.1715C32.9456 52.1715 32.0818 51.3556 32.0055 50.3207L32 50.1715V45.171L3 45.1716C1.40232 45.1716 0.0963391 43.9227 0.00509262 42.3479L0 42.1716V37.1716C0 35.5739 1.24892 34.2679 2.82373 34.1767L3 34.1716L32 34.171V29.0121C32 28.6507 32.0979 28.2972 32.2818 27.9886L32.3808 27.8382C32.9967 26.9886 34.1561 26.7662 35.0372 27.302ZM19.212 0.838171C19.4595 1.17956 19.5928 1.59044 19.5928 2.01211L19.592 7.17096L48.5928 7.1716C50.2497 7.1716 51.5928 8.51475 51.5928 10.1716V15.1716C51.5928 16.8285 50.2497 18.1716 48.5928 18.1716L19.592 18.171L19.5928 23.1715C19.5928 24.276 18.6974 25.1715 17.5928 25.1715C17.1711 25.1715 16.7603 25.0382 16.4189 24.7907L1.82621 14.211C0.931938 13.5627 0.732576 12.3121 1.38092 11.4178C1.50491 11.2468 1.6552 11.0965 1.82621 10.9726L16.4189 0.392886C17.3131 -0.255461 18.5637 -0.0560997 19.212 0.838171Z" fill="url(#paint0_linear_44_272)" fill-opacity="0.4" style="mix-blend-mode:soft-light"/>
</g>
<g id="Vector_2">
<path d="M26 39.012C33.1797 39.012 39 33.1917 39 26.012C39 18.8323 33.1797 13.012 26 13.012C18.8203 13.012 13 18.8323 13 26.012C13 33.1917 18.8203 39.012 26 39.012Z" fill="#017DE8"/>
<path d="M26 39.012C33.1797 39.012 39 33.1917 39 26.012C39 18.8323 33.1797 13.012 26 13.012C18.8203 13.012 13 18.8323 13 26.012C13 33.1917 18.8203 39.012 26 39.012Z" fill="url(#paint1_linear_44_272)" fill-opacity="0.4" style="mix-blend-mode:soft-light"/>
</g>
<path id="Vector_3" fill-rule="evenodd" clip-rule="evenodd" d="M26.465 18.0654C26.9778 18.0654 27.4005 18.4515 27.4582 18.9488L27.465 19.0654L27.464 24.548L30.4789 24.548C30.6369 24.548 30.7921 24.5855 30.932 24.6566L31.0338 24.7162C31.4605 25.0008 31.5978 25.5565 31.3699 26.0023L31.3107 26.103L26.3669 33.5135C26.1814 33.7915 25.8693 33.9585 25.535 33.9585C25.0222 33.9585 24.5995 33.5725 24.5418 33.0751L24.535 32.9585L24.535 27.475L21.5211 27.4759C21.3631 27.4759 21.2079 27.4384 21.068 27.3673L20.9662 27.3077C20.5396 27.0231 20.4022 26.4674 20.6301 26.0216L20.6893 25.9209L25.6331 18.5104C25.8186 18.2324 26.1307 18.0654 26.465 18.0654Z" fill="white"/>
</g>
<defs>
<linearGradient id="paint0_linear_44_272" x1="0" y1="0.0119629" x2="52.1564" y2="51.6017" gradientUnits="userSpaceOnUse">
<stop stop-color="white"/>
<stop offset="1"/>
</linearGradient>
<linearGradient id="paint1_linear_44_272" x1="13" y1="13.012" x2="39" y2="39.012" gradientUnits="userSpaceOnUse">
<stop stop-color="white"/>
<stop offset="1"/>
</linearGradient>
</defs>
</svg>
