<svg width="64" height="55" viewBox="0 0 64 55" fill="none" xmlns="http://www.w3.org/2000/svg">
<g id="Group">
<g id="Vector">
<path fill-rule="evenodd" clip-rule="evenodd" d="M5 0.0119629H59C61.7614 0.0119629 64 2.25054 64 5.01196V49.012C64 51.7734 61.7614 54.012 59 54.012H5C2.23858 54.012 0 51.7734 0 49.012V5.01196C0 2.25054 2.23858 0.0119629 5 0.0119629Z" fill="#E7E8EA"/>
<path fill-rule="evenodd" clip-rule="evenodd" d="M5 0.0119629H59C61.7614 0.0119629 64 2.25054 64 5.01196V49.012C64 51.7734 61.7614 54.012 59 54.012H5C2.23858 54.012 0 51.7734 0 49.012V5.01196C0 2.25054 2.23858 0.0119629 5 0.0119629Z" fill="url(#paint0_linear_44_283)" fill-opacity="0.4" style="mix-blend-mode:soft-light"/>
</g>
<g id="Vector_2">
<path fill-rule="evenodd" clip-rule="evenodd" d="M5 0.0119629H59C61.7614 0.0119629 64 2.25054 64 5.01196V12.012H0V5.01196C0 2.25054 2.23858 0.0119629 5 0.0119629Z" fill="#CFD2D5"/>
<path fill-rule="evenodd" clip-rule="evenodd" d="M5 0.0119629H59C61.7614 0.0119629 64 2.25054 64 5.01196V12.012H0V5.01196C0 2.25054 2.23858 0.0119629 5 0.0119629Z" fill="url(#paint1_linear_44_283)" fill-opacity="0.4" style="mix-blend-mode:soft-light"/>
</g>
<path id="Vector_3" fill-rule="evenodd" clip-rule="evenodd" d="M7 3.01196C8.65685 3.01196 10 4.35511 10 6.01196C10 7.66882 8.65685 9.01196 7 9.01196C5.34315 9.01196 4 7.66882 4 6.01196C4 4.35511 5.34315 3.01196 7 3.01196ZM16 3.01196C17.6569 3.01196 19 4.35511 19 6.01196C19 7.66882 17.6569 9.01196 16 9.01196C14.3431 9.01196 13 7.66882 13 6.01196C13 4.35511 14.3431 3.01196 16 3.01196ZM25 3.01196C26.6569 3.01196 28 4.35511 28 6.01196C28 7.66882 26.6569 9.01196 25 9.01196C23.3431 9.01196 22 7.66882 22 6.01196C22 4.35511 23.3431 3.01196 25 3.01196Z" fill="white"/>
<g id="Vector_4">
<path fill-rule="evenodd" clip-rule="evenodd" d="M36.4463 19.796C37.4348 20.1558 37.9673 21.2139 37.6894 22.2105L37.6416 22.3594L30.1172 43.0326C29.7394 44.0706 28.5917 44.6058 27.5537 44.228C26.5652 43.8682 26.0327 42.8101 26.3106 41.8135L26.3584 41.6645L33.8828 20.9913C34.2606 19.9534 35.4083 19.4182 36.4463 19.796ZM23.6278 23.85C24.2375 24.7041 24.0797 25.874 23.2916 26.5391L23.162 26.6398L16.415 31.455L23.1799 36.3971C24.0272 37.0161 24.2453 38.1763 23.7063 39.0555L23.6149 39.1918C22.9958 40.0391 21.8356 40.2573 20.9565 39.7183L20.8201 39.6269L11.8201 33.0513C10.7632 32.279 10.7293 30.7311 11.7101 29.9076L11.838 29.8086L20.838 23.3841C21.737 22.7424 22.9861 22.951 23.6278 23.85ZM40.3723 23.85C40.982 22.9959 42.1397 22.765 43.0248 23.2942L43.1621 23.3841L52.1621 29.8086L52.29 29.9076C53.23 30.6968 53.238 32.1513 52.3068 32.9508L52.18 33.0513L43.18 39.6269L43.0437 39.7183C42.2134 40.2273 41.1324 40.061 40.4933 39.3272L40.3853 39.1918L40.2938 39.0555C39.7848 38.2252 39.9511 37.1442 40.6849 36.5051L40.8203 36.3971L47.5852 31.455L40.8382 26.6398L40.7085 26.5391C39.9204 25.874 39.7627 24.7041 40.3723 23.85Z" fill="#017DE8"/>
<path fill-rule="evenodd" clip-rule="evenodd" d="M36.4463 19.796C37.4348 20.1558 37.9673 21.2139 37.6894 22.2105L37.6416 22.3594L30.1172 43.0326C29.7394 44.0706 28.5917 44.6058 27.5537 44.228C26.5652 43.8682 26.0327 42.8101 26.3106 41.8135L26.3584 41.6645L33.8828 20.9913C34.2606 19.9534 35.4083 19.4182 36.4463 19.796ZM23.6278 23.85C24.2375 24.7041 24.0797 25.874 23.2916 26.5391L23.162 26.6398L16.415 31.455L23.1799 36.3971C24.0272 37.0161 24.2453 38.1763 23.7063 39.0555L23.6149 39.1918C22.9958 40.0391 21.8356 40.2573 20.9565 39.7183L20.8201 39.6269L11.8201 33.0513C10.7632 32.279 10.7293 30.7311 11.7101 29.9076L11.838 29.8086L20.838 23.3841C21.737 22.7424 22.9861 22.951 23.6278 23.85ZM40.3723 23.85C40.982 22.9959 42.1397 22.765 43.0248 23.2942L43.1621 23.3841L52.1621 29.8086L52.29 29.9076C53.23 30.6968 53.238 32.1513 52.3068 32.9508L52.18 33.0513L43.18 39.6269L43.0437 39.7183C42.2134 40.2273 41.1324 40.061 40.4933 39.3272L40.3853 39.1918L40.2938 39.0555C39.7848 38.2252 39.9511 37.1442 40.6849 36.5051L40.8203 36.3971L47.5852 31.455L40.8382 26.6398L40.7085 26.5391C39.9204 25.874 39.7627 24.7041 40.3723 23.85Z" fill="url(#paint2_linear_44_283)" fill-opacity="0.4" style="mix-blend-mode:soft-light"/>
</g>
</g>
<defs>
<linearGradient id="paint0_linear_44_283" x1="0" y1="0.0119629" x2="53.2299" y2="63.0992" gradientUnits="userSpaceOnUse">
<stop stop-color="white"/>
<stop offset="1"/>
</linearGradient>
<linearGradient id="paint1_linear_44_283" x1="0" y1="0.0119629" x2="4.34717" y2="23.1969" gradientUnits="userSpaceOnUse">
<stop stop-color="white"/>
<stop offset="1"/>
</linearGradient>
<linearGradient id="paint2_linear_44_283" x1="11" y1="19.6748" x2="32.5528" y2="56.3616" gradientUnits="userSpaceOnUse">
<stop stop-color="white"/>
<stop offset="1"/>
</linearGradient>
</defs>
</svg>
