<svg width="64" height="65" viewBox="0 0 64 65" fill="none" xmlns="http://www.w3.org/2000/svg">
<g id="Fees">
<g id="Vector">
<path fill-rule="evenodd" clip-rule="evenodd" d="M64 13.012C64 10.2505 61.7614 8.01196 59 8.01196H5C2.23857 8.01196 0 10.2505 0 13.012V42.4829C0 45.2443 2.23857 47.4829 5 47.4829H38.7635C40.1866 47.4829 41.5422 48.0892 42.4908 49.15L52.5091 60.354C52.8885 60.7783 53.4308 61.0208 54 61.0208C55.0544 61.0208 55.9182 60.205 55.9945 59.1701L56 59.0208L55.9955 49.4838C55.9949 48.3789 56.8905 47.4829 57.9955 47.4829H59C61.7614 47.4829 64 45.2443 64 42.4829V13.012Z" fill="#E7E8EA"/>
<path fill-rule="evenodd" clip-rule="evenodd" d="M64 13.012C64 10.2505 61.7614 8.01196 59 8.01196H5C2.23857 8.01196 0 10.2505 0 13.012V42.4829C0 45.2443 2.23857 47.4829 5 47.4829H38.7635C40.1866 47.4829 41.5422 48.0892 42.4908 49.15L52.5091 60.354C52.8885 60.7783 53.4308 61.0208 54 61.0208C55.0544 61.0208 55.9182 60.205 55.9945 59.1701L56 59.0208L55.9955 49.4838C55.9949 48.3789 56.8905 47.4829 57.9955 47.4829H59C61.7614 47.4829 64 45.2443 64 42.4829V13.012Z" fill="url(#paint0_linear_44_261)" fill-opacity="0.4" style="mix-blend-mode:soft-light"/>
</g>
<g id="Vector_2">
<path d="M32 42.012C24.268 42.012 18 35.7439 18 28.012C18 20.28 24.268 14.012 32 14.012C39.732 14.012 46 20.28 46 28.012C46 35.7439 39.732 42.012 32 42.012Z" fill="#017DE8"/>
<path d="M32 42.012C24.268 42.012 18 35.7439 18 28.012C18 20.28 24.268 14.012 32 14.012C39.732 14.012 46 20.28 46 28.012C46 35.7439 39.732 42.012 32 42.012Z" fill="url(#paint1_linear_44_261)" fill-opacity="0.4" style="mix-blend-mode:soft-light"/>
</g>
<path id="Vector_3" d="M32.9783 36.2076V35.4159C33.6159 35.4013 34.2355 35.292 34.837 35.0879C35.4384 34.8838 35.9746 34.585 36.4457 34.1915C36.9167 33.7979 37.2935 33.306 37.5761 32.7156C37.8587 32.1253 38 31.4293 38 30.6276C38 29.8405 37.8478 29.1846 37.5435 28.6598C37.2391 28.1351 36.8478 27.6905 36.3696 27.3261C35.8913 26.9617 35.3623 26.6702 34.7826 26.4515C34.2029 26.2329 33.6304 26.0361 33.0652 25.8612V22.3629C33.529 22.3775 34.0145 22.4868 34.5217 22.6909C35.029 22.895 35.4638 23.1792 35.8261 23.5436C36.5217 22.7711 37.2246 21.9767 37.9348 21.1604C37.2536 20.6065 36.4783 20.1984 35.6087 19.936C34.7391 19.6736 33.8913 19.5279 33.0652 19.4987V18.8054C33.0652 18.3672 32.71 18.012 32.2717 18.012C31.8335 18.012 31.4783 18.3672 31.4783 18.8054V19.5206C30.913 19.5497 30.3406 19.67 29.7609 19.8814C29.1812 20.0927 28.6594 20.3915 28.1957 20.7778C27.7319 21.1641 27.3551 21.6378 27.0652 22.199C26.7754 22.7601 26.6304 23.3978 26.6304 24.1121C26.6304 24.8409 26.7609 25.4567 27.0217 25.9596C27.2826 26.4625 27.6304 26.8888 28.0652 27.2387C28.5 27.5885 29.0036 27.8727 29.5761 28.0914C30.1486 28.31 30.7464 28.5068 31.3696 28.6817V32.5079C31.1232 32.5079 30.8623 32.4679 30.587 32.3877C30.3116 32.3075 30.0362 32.2018 29.7609 32.0707C29.4855 31.9395 29.2174 31.7828 28.9565 31.6006C28.6957 31.4184 28.471 31.2179 28.2826 30.9993C27.9058 31.4074 27.5254 31.8119 27.1413 32.2128L26 33.4044C26.7246 34.0603 27.5652 34.5522 28.5217 34.8802C29.4783 35.2082 30.4275 35.3867 31.3696 35.4159V36.2076C31.3696 36.6518 31.7297 37.012 32.1739 37.012C32.6181 37.012 32.9783 36.6518 32.9783 36.2076ZM31.4783 25.4895C31.0145 25.3729 30.6449 25.1907 30.3696 24.9429C30.0942 24.6951 29.9565 24.338 29.9565 23.8716C29.9565 23.3906 30.1123 23.0225 30.4239 22.7674C30.7355 22.5123 31.087 22.3629 31.4783 22.3192V25.4895ZM32.9783 29.0753C33.442 29.221 33.8225 29.4214 34.1196 29.6765C34.4167 29.9316 34.5652 30.3142 34.5652 30.8244C34.5652 31.3346 34.4239 31.739 34.1413 32.0379C33.8587 32.3367 33.471 32.5006 32.9783 32.5298V29.0753Z" fill="white"/>
</g>
<defs>
<linearGradient id="paint0_linear_44_261" x1="64" y1="8.01196" x2="11.9184" y2="70.8924" gradientUnits="userSpaceOnUse">
<stop stop-color="white"/>
<stop offset="1"/>
</linearGradient>
<linearGradient id="paint1_linear_44_261" x1="46" y1="14.012" x2="18" y2="42.012" gradientUnits="userSpaceOnUse">
<stop stop-color="white"/>
<stop offset="1"/>
</linearGradient>
</defs>
</svg>
